<?xml version="1.0" encoding="utf-8"?>
<!-- Generator: Adobe Illustrator 19.2.1, SVG Export Plug-In . SVG Version: 6.00 Build 0)  -->
<svg version="1.1" id="Layer_1" xmlns="http://www.w3.org/2000/svg" xmlns:xlink="http://www.w3.org/1999/xlink" x="0px" y="0px"
	 viewBox="0 0 557.3 100" style="enable-background:new 0 0 557.3 100;" xml:space="preserve">
<style type="text/css">
	.st0{fill:#101010;}
</style>
<path class="st0" d="M149.3,23.1c-3.4,0-6.3,0.9-8.8,2.7c-2.5,1.8-4.5,4.2-5.9,7.1h-0.2v-8.4h-12v50.3H135V48c0-0.9,0.2-2.1,0.5-3.7
	c0.3-1.5,1-3,2-4.5s2.3-2.7,4.1-3.8c1.7-1,4-1.6,6.9-1.6c0.6,0,1.1,0,1.7,0.1c0.6,0.1,1.3,0.2,2.1,0.4V23.5
	c-0.4-0.1-0.9-0.2-1.5-0.3S149.8,23.1,149.3,23.1z"/>
<path class="st0" d="M256.3,30.8c-2.2-2.4-4.7-4.2-7.7-5.6s-6.3-2-9.8-2c-2.3,0-4.4,0.3-6.2,0.8s-3.5,1.2-5,2s-2.7,1.7-3.7,2.7
	s-1.8,2-2.5,3H221v-7h-12V100h12.6V68.2h0.2c1.6,2.5,3.9,4.5,6.9,6s6.2,2.2,9.8,2.2c3.8,0,7.3-0.7,10.3-2.1s5.6-3.4,7.7-5.8
	c2.1-2.4,3.8-5.2,4.9-8.5s1.7-6.7,1.7-10.4s-0.6-7.2-1.8-10.4S258.5,33.2,256.3,30.8z M249.4,55.4c-0.6,2-1.5,3.7-2.7,5.2
	s-2.7,2.8-4.5,3.8s-3.9,1.5-6.4,1.5c-2.3,0-4.4-0.5-6.2-1.4s-3.4-2.2-4.7-3.7s-2.3-3.3-2.9-5.2c-0.7-1.9-1-3.9-1-5.8s0.3-3.9,1-5.9
	s1.6-3.7,2.9-5.2s2.8-2.8,4.7-3.8c1.8-1,3.9-1.5,6.2-1.5c2.4,0,4.6,0.5,6.4,1.4c1.8,0.9,3.3,2.2,4.5,3.7s2.1,3.3,2.7,5.2
	s0.9,3.9,0.9,5.8C250.3,51.5,250,53.4,249.4,55.4z"/>
<path class="st0" d="M173.5,33.8c1.7-0.8,3.5-1.3,5.5-1.3c2.3,0,4.4,0.5,6.4,1.6s3.5,2.4,4.6,3.8l8.2-7.2c-2-2.6-4.8-4.5-8.2-5.8
	s-7-1.9-10.6-1.9c-2.5,0-5,0.3-7.3,0.9c-2.4,0.6-4.5,1.6-6.4,2.9s-3.4,2.9-4.6,5c-1.2,2-1.7,4.4-1.7,7.2c0,2.4,0.4,4.4,1.3,6
	c0.8,1.6,2,2.9,3.4,4s3,2,4.8,2.6c1.8,0.7,3.6,1.2,5.5,1.6c3.8,0.9,6.7,1.8,8.6,2.7c1.9,0.9,2.9,2.4,2.9,4.5c0,1.1-0.2,2.1-0.7,2.8
	s-1.1,1.4-1.9,1.8s-1.7,0.8-2.6,1c-0.9,0.2-1.9,0.3-2.8,0.3c-2.7,0-5.2-0.6-7.4-1.8c-2.2-1.2-4-2.7-5.4-4.5l-8.3,7.7
	c2.4,2.7,5.5,4.7,9.2,6.1s7.5,2.1,11.4,2.1c2.7,0,5.4-0.3,7.9-0.9s4.8-1.6,6.7-2.9s3.5-3.1,4.6-5.2s1.7-4.7,1.7-7.8
	c0-2.4-0.5-4.5-1.5-6.2s-2.3-3.1-3.8-4.3c-1.6-1.2-3.3-2.1-5.2-2.8s-3.8-1.3-5.7-1.7c-3.6-0.8-6.3-1.7-8.1-2.5s-2.8-2.2-2.8-4.1
	C170.9,36.1,171.8,34.7,173.5,33.8z"/>
<polygon class="st0" points="477.2,61.3 477,61.3 463.8,24.6 450.1,24.6 470.4,74.9 483.8,74.9 503.8,24.6 490.5,24.6 "/>
<path class="st0" d="M407.9,8.6l-12.4,7.2v8.8h-8.8v10.1h8.8v23.5c0,2.4,0.2,4.7,0.7,6.9s1.3,4,2.5,5.7c1.2,1.6,2.9,2.9,5,3.9
	c2.1,0.9,4.8,1.4,8.2,1.4c1.4,0,2.9-0.1,4.4-0.4s2.9-0.6,4-1l-0.4-9.8c-0.8,0.3-1.6,0.6-2.6,0.8c-1,0.2-1.9,0.3-2.7,0.3
	c-2.8,0-4.6-0.7-5.4-2.2c-0.8-1.5-1.2-3.3-1.2-5.5V34.7h12.6V24.6H408v-16H407.9z"/>
<path class="st0" d="M316.3,30c-2.2-2.3-4.7-4-7.7-5.1c-3-1.2-6.2-1.7-9.7-1.7c-3.8,0-7.3,0.6-10.5,1.9s-6.1,3.1-8.4,5.4
	s-4.2,5.2-5.6,8.5c-1.4,3.3-2,7-2,11c0,4.1,0.7,7.8,2,11c1.4,3.2,3.2,6,5.7,8.2c2.4,2.2,5.3,4,8.5,5.2c3.3,1.2,6.9,1.8,10.8,1.8
	c9.4,0,16.6-3.4,22.7-11.3l-9.5-5.3c-2.1,2.4-3.2,3.4-5.4,4.6c-2.2,1.2-4.8,1.7-8,1.7c-1.8,0-3.6-0.3-5.2-0.9
	c-1.7-0.6-3.2-1.5-4.5-2.6s-2.4-2.4-3.2-3.9s-1.3-3.2-1.4-5h38.2c0.1-0.6,0.1-1.1,0.1-1.7v-1.7c0-4.5-0.6-8.5-1.8-11.9
	C320.1,35.1,318.5,32.3,316.3,30z M284.9,44.7c0.3-3.6,1.7-6.5,4.3-8.7c2.6-2.3,5.8-3.4,9.6-3.4c2,0,3.8,0.3,5.3,1s2.7,1.6,3.7,2.7
	c1,1.1,1.7,2.4,2.1,3.9c0.5,1.5,0.7,3,0.7,4.6L284.9,44.7L284.9,44.7z"/>
<rect x="429.8" y="24.6" class="st0" width="12.6" height="50.3"/>
<path class="st0" d="M52.4,39.2c-1.2-3.2-2.9-6-5-8.4s-4.7-4.2-7.7-5.6c-3-1.4-6.3-2-9.8-2c-2.3,0-4.4,0.3-6.2,0.8
	c-1.8,0.5-3.5,1.2-5,2S16,27.7,15,28.7s-1.8,2-2.5,3H12v-7H0V100h12.6V68.2h0.2c1.6,2.5,3.9,4.5,6.9,6s6.2,2.2,9.8,2.2
	c3.8,0,7.3-0.7,10.3-2.1s5.6-3.4,7.7-5.8c2.1-2.4,3.8-5.2,4.9-8.5s1.7-6.7,1.7-10.4S53.5,42.4,52.4,39.2z M40.5,55.4
	c-0.6,2-1.5,3.7-2.7,5.2s-2.7,2.8-4.5,3.8s-3.9,1.5-6.4,1.5c-2.3,0-4.4-0.5-6.2-1.4s-3.4-2.2-4.7-3.7s-2.3-3.3-2.9-5.2
	c-0.7-1.9-1-3.9-1-5.8s0.3-3.9,1-5.9s1.6-3.7,2.9-5.2s2.8-2.8,4.7-3.8c1.8-1,3.9-1.5,6.2-1.5c2.4,0,4.6,0.5,6.4,1.4
	c1.8,0.9,3.3,2.2,4.5,3.7s2.1,3.3,2.7,5.2s0.9,3.9,0.9,5.8C41.4,51.5,41.1,53.4,40.5,55.4z"/>
<path class="st0" d="M370.9,59.7c-2.6,3.7-6.6,6.1-11.2,6.1c-7.9,0-14.2-7.2-14.2-16.1s6.4-16.1,14.2-16.1c4.5,0,8.6,2.4,11.2,6.1
	l9.5-5.5c-4.8-6.7-12.7-11.1-21.5-11.1c-14.7,0-26.5,11.9-26.5,26.7c0,14.7,11.9,26.7,26.5,26.7c8.9,0,16.8-4.4,21.6-11.2
	L370.9,59.7z"/>
<path class="st0" d="M105.3,29.9c-2.2-2.3-4.7-4-7.7-5.1c-3-1.2-6.2-1.7-9.7-1.7c-3.8,0-7.3,0.6-10.5,1.9s-6.1,3.1-8.4,5.4
	s-4.2,5.2-5.6,8.5s-2,7-2,11c0,4.1,0.7,7.8,2,11c1.4,3.2,3.2,6,5.7,8.2c2.4,2.2,5.3,4,8.5,5.2c3.3,1.2,6.9,1.8,10.8,1.8
	c9.4,0,16.6-3.4,22.7-11.3l-9.5-5.3c-2.1,2.4-3.2,3.4-5.4,4.6c-2.2,1.2-4.8,1.7-8,1.7c-1.8,0-3.6-0.3-5.2-0.9
	c-1.7-0.6-3.2-1.5-4.5-2.6s-2.4-2.4-3.2-3.9s-1.3-3.2-1.4-5h38.2c0.1-0.6,0.1-1.1,0.1-1.7V50c0-4.5-0.6-8.5-1.8-11.9
	C109.2,35,107.5,32.2,105.3,29.9z M73.9,44.6c0.3-3.6,1.7-6.5,4.3-8.7c2.6-2.3,5.8-3.4,9.6-3.4c2,0,3.8,0.3,5.3,1s2.7,1.6,3.7,2.7
	c1,1.1,1.7,2.4,2.1,3.9c0.5,1.5,0.7,3,0.7,4.6L73.9,44.6L73.9,44.6z"/>
<path class="st0" d="M550.4,30c-2.2-2.3-4.7-4-7.7-5.1c-3-1.2-6.2-1.7-9.7-1.7c-3.8,0-7.3,0.6-10.5,1.9s-6.1,3.1-8.4,5.4
	c-2.4,2.3-4.2,5.2-5.6,8.5c-1.4,3.3-2,7-2,11c0,4.1,0.7,7.8,2,11c1.4,3.2,3.2,6,5.7,8.2c2.4,2.2,5.3,4,8.5,5.2
	c3.3,1.2,6.9,1.8,10.8,1.8c9.4,0,16.6-3.4,22.7-11.3l-9.5-5.3c-2.1,2.4-3.2,3.4-5.4,4.6c-2.2,1.2-4.8,1.7-8,1.7
	c-1.8,0-3.6-0.3-5.2-0.9c-1.7-0.6-3.2-1.5-4.5-2.6s-2.4-2.4-3.2-3.9s-1.3-3.2-1.4-5h38.2c0.1-0.6,0.1-1.1,0.1-1.7v-1.7
	c0-4.5-0.6-8.5-1.8-11.9C554.3,35.1,552.6,32.3,550.4,30z M519,44.7c0.3-3.6,1.7-6.5,4.3-8.7c2.6-2.3,5.8-3.4,9.6-3.4
	c2,0,3.8,0.3,5.3,1s2.7,1.6,3.7,2.7c1,1.1,1.7,2.4,2.1,3.9c0.5,1.5,0.7,3,0.7,4.6L519,44.7L519,44.7z"/>
<circle class="st0" cx="436.1" cy="7.5" r="7.5"/>
</svg>
